<svg xmlns="http://www.w3.org/2000/svg" viewBox="0 0 200 200"><rect width="200" height="200" rx="44" fill="#0F1417"/><g transform="translate(15 15) scale(.85)"><g fill="#EDE7DA"><circle cx="16.00" cy="100.00" r="2.00"/><circle cx="35.11" cy="85.08" r="2.73"/><circle cx="35.11" cy="114.92" r="2.73"/><circle cx="57.11" cy="73.23" r="3.46"/><circle cx="57.11" cy="126.77" r="3.46"/><circle cx="81.54" cy="72.37" r="5.50"/><circle cx="81.54" cy="127.63" r="5.50"/><circle cx="100.00" cy="61.10" r="4.40"/><circle cx="100.00" cy="138.90" r="4.40"/><circle cx="118.46" cy="72.37" r="5.50"/><circle cx="118.46" cy="127.63" r="5.50"/><circle cx="142.89" cy="73.23" r="3.46"/><circle cx="142.89" cy="126.77" r="3.46"/><circle cx="164.89" cy="85.08" r="2.73"/><circle cx="164.89" cy="114.92" r="2.73"/><circle cx="184.00" cy="100.00" r="2.00"/><circle cx="124.00" cy="100.00" r="5.50"/><circle cx="76.00" cy="100.00" r="5.50"/><circle cx="141.00" cy="100.00" r="3.52"/><circle cx="59.00" cy="100.00" r="3.52"/></g><circle cx="100" cy="100" r="13" fill="#C9A45C"/></g></svg>
